<svg width="118" height="31" viewBox="0 0 118 31" fill="none" xmlns="http://www.w3.org/2000/svg">
<path d="M46.7426 6.76356V24.7999H42.8406V6.76356H46.7426ZM53.7197 16.9795V24.7999H49.8808V11.2726H53.5395V13.6593H53.7017C54.0081 12.8725 54.5218 12.2502 55.2426 11.7923C55.9636 11.3284 56.8377 11.0965 57.865 11.0965C58.8262 11.0965 59.6643 11.302 60.3792 11.713C61.0941 12.124 61.6498 12.7111 62.0463 13.4744C62.4428 14.2317 62.641 15.1359 62.641 16.1869V24.7999H58.8022V16.8562C58.8082 16.0283 58.5919 15.3825 58.1534 14.9187C57.7148 14.449 57.111 14.2141 56.3421 14.2141C55.8254 14.2141 55.3688 14.3227 54.9723 14.54C54.5818 14.7572 54.2754 15.0742 54.0531 15.4911C53.8368 15.9021 53.7257 16.3982 53.7197 16.9795ZM78.0754 11.2726L73.2361 24.7999H68.9107L64.0714 11.2726H68.1266L71.0017 20.9513H71.1457L74.0114 11.2726H78.0754ZM80.0401 24.7999V11.2726H83.8789V24.7999H80.0401ZM81.9687 9.52888C81.3978 9.52888 80.908 9.34393 80.4995 8.97404C80.0972 8.59832 79.8961 8.14913 79.8961 7.6266C79.8961 7.10995 80.0972 6.66665 80.4995 6.29676C80.908 5.92103 81.3978 5.73315 81.9687 5.73315C82.5391 5.73315 83.0257 5.92103 83.4285 6.29676C83.8371 6.66665 84.0414 7.10995 84.0414 7.6266C84.0414 8.14913 83.8371 8.59832 83.4285 8.97404C83.0257 9.34393 82.5391 9.52888 81.9687 9.52888ZM94.3162 11.2726V14.0908H85.9807V11.2726H94.3162ZM87.8732 8.03171H91.712V20.6431C91.712 20.9895 91.7659 21.2596 91.8744 21.4533C91.9822 21.6412 92.1326 21.7733 92.3248 21.8496C92.5234 21.926 92.7511 21.9641 93.01 21.9641C93.1902 21.9641 93.3703 21.9495 93.5505 21.9201C93.7307 21.8849 93.869 21.8584 93.9648 21.8408L94.5687 24.6326C94.3765 24.6913 94.1062 24.7588 93.758 24.8351C93.409 24.9173 92.9859 24.9673 92.4872 24.9849C91.5616 25.0201 90.7509 24.8997 90.0543 24.6238C89.3634 24.3478 88.8254 23.9192 88.441 23.338C88.0565 22.7567 87.8675 22.0228 87.8732 21.1363V8.03171Z" fill="#334155"/>
<path d="M103.125 25.0643C101.702 25.0643 100.476 24.7825 99.4487 24.2189C98.4273 23.6493 97.64 22.845 97.0875 21.8058C96.5349 20.7607 96.2583 19.5248 96.2583 18.0981C96.2583 16.7066 96.5349 15.4854 97.0875 14.4345C97.64 13.3836 98.4185 12.5645 99.4215 11.9774C100.431 11.3902 101.615 11.0967 102.972 11.0967C103.885 11.0967 104.735 11.2405 105.523 11.5283C106.316 11.8101 107.006 12.2357 107.595 12.8052C108.19 13.3747 108.652 14.091 108.983 14.9541C109.313 15.8113 109.478 16.8153 109.478 17.966V18.9964H97.7904V16.6714H105.865C105.865 16.1313 105.745 15.6528 105.504 15.2359C105.264 14.819 104.931 14.4932 104.504 14.2584C104.084 14.0176 103.594 13.8973 103.035 13.8973C102.453 13.8973 101.936 14.0293 101.485 14.2936C101.04 14.5519 100.692 14.9012 100.44 15.3416C100.188 15.7761 100.058 16.2604 100.053 16.7947V19.0052C100.053 19.6746 100.178 20.2528 100.431 20.7402C100.689 21.2275 101.053 21.6033 101.521 21.8674C101.99 22.1316 102.545 22.2637 103.189 22.2637C103.615 22.2637 104.006 22.205 104.36 22.0876C104.714 21.9702 105.018 21.794 105.27 21.5592C105.523 21.3243 105.715 21.0366 105.847 20.6961L109.398 20.9251C109.217 21.7588 108.848 22.4868 108.289 23.1092C107.736 23.7256 107.021 24.2071 106.144 24.5535C105.273 24.894 104.267 25.0643 103.125 25.0643Z" fill="#334155"/>
<path d="M32.8615 16.5809L12.1087 29.0191C11.3842 29.4522 10.5136 29.5867 9.68772 29.3932C8.86185 29.1998 8.14827 28.6941 7.70342 27.9871L6.36367 25.8522C6.27487 25.7107 6.24722 25.5404 6.28682 25.379C6.32643 25.2175 6.43003 25.078 6.57487 24.9912L7.12103 24.6639C8.32577 23.9418 8.70464 22.3971 7.96581 21.2196C7.22698 20.0423 5.64635 19.672 4.44159 20.3941L3.89546 20.7214C3.75062 20.8082 3.57643 20.8352 3.41119 20.7965C3.24597 20.7578 3.10324 20.6566 3.01441 20.515L1.67469 18.3801C0.751626 16.9092 1.22555 14.977 2.73068 14.0749L23.4835 1.63664C24.9886 0.734537 26.9657 1.1977 27.8888 2.66865L29.2285 4.80353C29.3173 4.94509 29.345 5.11533 29.3053 5.2768C29.2658 5.43828 29.1622 5.57777 29.0173 5.66458L28.4712 5.9919C28.0403 6.25167 27.6978 6.63018 27.4866 7.07974C27.2754 7.52936 27.2051 8.03001 27.2845 8.51857C27.3639 9.0072 27.5894 9.4619 27.9327 9.82547C28.276 10.1891 28.7216 10.4453 29.2136 10.5618C29.8786 10.7185 30.5662 10.6119 31.1495 10.2623L31.6956 9.93503C31.8404 9.84823 32.0147 9.82119 32.1799 9.85988C32.3451 9.89857 32.4879 9.99988 32.5767 10.1414L33.9164 12.2763C34.3597 12.9841 34.4977 13.8348 34.2999 14.6418C34.1021 15.4488 33.5848 16.1462 32.8615 16.5809ZM7.7909 25.7313L8.79568 27.3325C9.34964 28.2152 10.5355 28.4931 11.4388 27.9517L32.1917 15.5134C33.0949 14.972 33.3792 13.8131 32.8252 12.9303L31.8205 11.3292C31.391 11.5881 30.9121 11.7619 30.4137 11.8393C29.9153 11.9167 29.4061 11.8966 28.9156 11.7804C28.4241 11.6666 27.9605 11.4587 27.5517 11.1686C27.143 10.8786 26.7971 10.5122 26.5341 10.0907C25.4262 8.3252 25.9947 6.00724 27.8013 4.92446L26.7965 3.32328C26.2425 2.44051 25.0566 2.16269 24.1534 2.70408L3.40054 15.1423C2.49725 15.6837 2.21297 16.8427 2.76695 17.7254L3.77173 19.3266C5.57832 18.2438 7.95014 18.7995 9.05807 20.565C10.166 22.3306 9.59744 24.6485 7.7909 25.7313Z" fill="#04FFBB"/>
<path d="M10.6237 12.282C10.4789 12.3688 10.3047 12.3958 10.1395 12.3571C9.97421 12.3184 9.83147 12.2171 9.74265 12.0756L9.07278 11.0081C8.98396 10.8666 8.9563 10.6963 8.99595 10.5348C9.03554 10.3734 9.13914 10.2339 9.28397 10.1471C9.42881 10.0603 9.60302 10.0332 9.76828 10.0719C9.93348 10.1107 10.0762 10.2119 10.165 10.3535L10.8349 11.4209C10.9237 11.5625 10.9514 11.7327 10.9118 11.8942C10.8721 12.0557 10.7686 12.1952 10.6237 12.282ZM16.2914 21.3136C16.1466 21.4004 15.9724 21.4275 15.8071 21.3888C15.6419 21.35 15.4991 21.2488 15.4103 21.1072L14.2776 19.3022C14.1888 19.1606 14.1611 18.9904 14.2007 18.8289C14.2404 18.6674 14.344 18.5279 14.4888 18.4411C14.6336 18.3543 14.8078 18.3273 14.973 18.366C15.1383 18.4047 15.281 18.506 15.3699 18.6475L16.5032 20.4536C16.5917 20.5952 16.619 20.7653 16.5793 20.9265C16.5396 21.0877 16.436 21.2269 16.2914 21.3136ZM13.4579 16.7983C13.313 16.8852 13.1388 16.9121 12.9736 16.8734C12.8084 16.8348 12.6656 16.7335 12.5768 16.5919L11.4434 14.7858C11.3546 14.6442 11.327 14.474 11.3665 14.3125C11.4061 14.1511 11.5098 14.0116 11.6546 13.9248C11.7995 13.8379 11.9737 13.811 12.1389 13.8496C12.3041 13.8883 12.4469 13.9896 12.5357 14.1312L13.6691 15.9373C13.7579 16.0789 13.7855 16.249 13.746 16.4106C13.7064 16.572 13.6027 16.7115 13.4579 16.7983ZM18.662 25.0913C18.5172 25.1782 18.3429 25.2051 18.1777 25.1664C18.0125 25.1278 17.8698 25.0264 17.7809 24.8849L17.1111 23.8174C17.0222 23.6759 16.9946 23.5056 17.0342 23.3442C17.0738 23.1828 17.1775 23.0433 17.3223 22.9565C17.4671 22.8696 17.6414 22.8426 17.8066 22.8813C17.9718 22.92 18.1145 23.0213 18.2033 23.1629L18.8732 24.2303C18.962 24.3719 18.9897 24.542 18.9501 24.7036C18.9105 24.865 18.8068 25.0045 18.662 25.0913Z" fill="#04FFBB"/>
</svg>
